<mxfile host="app.diagrams.net" modified="2023-05-17T12:10:15.960Z" agent="Mozilla/5.0 (Macintosh; Intel Mac OS X 10_15_7) AppleWebKit/537.36 (KHTML, like Gecko) Chrome/113.0.0.0 Safari/537.36" etag="S0R_9EWB_UjCin28V1Hb" version="21.2.9" type="github">
  <diagram name="第 1 页" id="Ibj0LSlTkFttdvkB4khN">
    <mxGraphModel dx="1675" dy="993" grid="0" gridSize="10" guides="1" tooltips="1" connect="1" arrows="1" fold="1" page="0" pageScale="1" pageWidth="827" pageHeight="1169" math="0" shadow="0">
      <root>
        <mxCell id="0" />
        <mxCell id="1" parent="0" />
        <mxCell id="tmR8ZYnyTiNwy0tVGYZ3-3" value="程序源文件" style="shape=note;whiteSpace=wrap;html=1;backgroundOutline=1;fontColor=#000000;darkOpacity=0.05;fillColor=#FFF9B2;strokeColor=none;fillStyle=solid;direction=west;gradientDirection=north;gradientColor=#FFF2A1;shadow=1;size=20;pointerEvents=1;" vertex="1" parent="1">
          <mxGeometry x="-7" y="-14" width="143" height="33" as="geometry" />
        </mxCell>
        <mxCell id="tmR8ZYnyTiNwy0tVGYZ3-6" value="lexer" style="rounded=0;whiteSpace=wrap;html=1;fontSize=13;" vertex="1" parent="1">
          <mxGeometry x="-185" y="62" width="701" height="123" as="geometry" />
        </mxCell>
        <mxCell id="tmR8ZYnyTiNwy0tVGYZ3-10" value="" style="edgeStyle=none;orthogonalLoop=1;jettySize=auto;html=1;rounded=0;endArrow=open;sourcePerimeterSpacing=8;targetPerimeterSpacing=8;curved=1;exitX=0.5;exitY=0;exitDx=0;exitDy=0;exitPerimeter=0;entryX=0.5;entryY=0;entryDx=0;entryDy=0;fontStyle=1" edge="1" parent="1" source="tmR8ZYnyTiNwy0tVGYZ3-3" target="tmR8ZYnyTiNwy0tVGYZ3-7">
          <mxGeometry width="140" relative="1" as="geometry">
            <mxPoint x="130" y="200" as="sourcePoint" />
            <mxPoint x="270" y="200" as="targetPoint" />
            <Array as="points" />
          </mxGeometry>
        </mxCell>
        <mxCell id="tmR8ZYnyTiNwy0tVGYZ3-11" value="" style="group" vertex="1" connectable="0" parent="1">
          <mxGeometry x="-108" y="87" width="345" height="81" as="geometry" />
        </mxCell>
        <mxCell id="tmR8ZYnyTiNwy0tVGYZ3-7" value="" style="rounded=0;whiteSpace=wrap;html=1;" vertex="1" parent="tmR8ZYnyTiNwy0tVGYZ3-11">
          <mxGeometry width="345" height="81" as="geometry" />
        </mxCell>
        <mxCell id="tmR8ZYnyTiNwy0tVGYZ3-1" value="缓冲" style="rounded=0;whiteSpace=wrap;html=1;" vertex="1" parent="tmR8ZYnyTiNwy0tVGYZ3-11">
          <mxGeometry x="26" y="32" width="103" height="28" as="geometry" />
        </mxCell>
        <mxCell id="tmR8ZYnyTiNwy0tVGYZ3-5" value="预处理" style="rounded=0;whiteSpace=wrap;html=1;" vertex="1" parent="tmR8ZYnyTiNwy0tVGYZ3-11">
          <mxGeometry x="204" y="35" width="84" height="25" as="geometry" />
        </mxCell>
        <mxCell id="tmR8ZYnyTiNwy0tVGYZ3-8" value="scanner" style="rounded=0;whiteSpace=wrap;html=1;strokeColor=none;fontSize=17;fontStyle=1" vertex="1" parent="tmR8ZYnyTiNwy0tVGYZ3-11">
          <mxGeometry x="8.5" y="5" width="79" height="19" as="geometry" />
        </mxCell>
        <mxCell id="tmR8ZYnyTiNwy0tVGYZ3-13" value="词法分析" style="rounded=0;whiteSpace=wrap;html=1;" vertex="1" parent="1">
          <mxGeometry x="303" y="87" width="160" height="80" as="geometry" />
        </mxCell>
        <mxCell id="tmR8ZYnyTiNwy0tVGYZ3-14" value="" style="edgeStyle=none;orthogonalLoop=1;jettySize=auto;html=1;rounded=0;endArrow=open;sourcePerimeterSpacing=8;targetPerimeterSpacing=8;curved=1;entryX=0;entryY=0.5;entryDx=0;entryDy=0;exitX=1;exitY=0.5;exitDx=0;exitDy=0;fontStyle=1" edge="1" parent="1" source="tmR8ZYnyTiNwy0tVGYZ3-7" target="tmR8ZYnyTiNwy0tVGYZ3-13">
          <mxGeometry width="140" relative="1" as="geometry">
            <mxPoint x="130" y="201" as="sourcePoint" />
            <mxPoint x="270" y="201" as="targetPoint" />
            <Array as="points" />
          </mxGeometry>
        </mxCell>
        <mxCell id="tmR8ZYnyTiNwy0tVGYZ3-15" value="&lt;b&gt;&lt;font style=&quot;font-size: 19px;&quot;&gt;Lexer&lt;/font&gt;&lt;/b&gt;" style="text;strokeColor=none;fillColor=none;html=1;align=center;verticalAlign=middle;whiteSpace=wrap;rounded=0;" vertex="1" parent="1">
          <mxGeometry x="-175" y="62" width="60" height="30" as="geometry" />
        </mxCell>
      </root>
    </mxGraphModel>
  </diagram>
</mxfile>
